<svg width="317" height="142" viewBox="0 0 317 142" fill="none" xmlns="http://www.w3.org/2000/svg">
<g clip-path="url(#clip0_26_431)">
<path d="M13.2175 135.342C13.2962 135.323 13.3786 135.324 13.4566 135.346C13.5347 135.368 13.6058 135.41 13.6629 135.467C13.7201 135.525 13.7614 135.596 13.7827 135.675C13.8041 135.753 13.8049 135.836 13.7849 135.915V137.057C13.7949 137.134 13.7893 137.212 13.7684 137.287C13.7476 137.361 13.7119 137.431 13.6636 137.491C13.5325 137.58 13.3747 137.619 13.2175 137.603H11.312V141.079C11.3312 141.158 11.3297 141.24 11.3079 141.319C11.286 141.397 11.2444 141.468 11.187 141.526C11.1297 141.583 11.0586 141.625 10.9805 141.647C10.9024 141.669 10.82 141.671 10.7413 141.651H9.38015C9.30333 141.66 9.22549 141.654 9.15117 141.632C9.07685 141.611 9.00752 141.575 8.94721 141.526C8.85979 141.394 8.82041 141.236 8.8357 141.079V137.603H0.882162C0.653649 137.621 0.425075 137.569 0.2262 137.455C0.159999 137.412 0.105715 137.353 0.0684307 137.284C0.0311461 137.214 0.0120786 137.136 0.0130124 137.057C0.0112366 136.941 0.041921 136.827 0.101569 136.728C0.19591 136.573 0.298838 136.424 0.409869 136.28L9.67861 124.732C9.84198 124.517 10.029 124.322 10.2362 124.149C10.3574 124.046 10.5102 123.988 10.6691 123.985C10.763 123.979 10.8567 123.998 10.9411 124.04C11.0255 124.081 11.0979 124.144 11.1512 124.222C11.2778 124.471 11.3334 124.75 11.312 125.028V135.359L13.2175 135.342ZM8.88489 128.862L3.76183 135.342H8.88489V128.862Z" fill="white"/>
<path d="M31.1351 126.516C31.0132 126.603 30.8641 126.642 30.7153 126.628H26.0612C25.9774 126.617 25.8929 126.64 25.8251 126.69C25.7782 126.75 25.7559 126.825 25.7628 126.901V141.105C25.7722 141.182 25.7663 141.26 25.7455 141.334C25.7246 141.409 25.6893 141.479 25.6414 141.539C25.5183 141.626 25.3682 141.666 25.2183 141.651H23.8408C23.692 141.667 23.5427 141.627 23.421 141.539C23.3718 141.479 23.3353 141.41 23.3139 141.335C23.2924 141.26 23.2865 141.182 23.2964 141.105V126.901C23.3033 126.825 23.281 126.75 23.2341 126.69C23.1663 126.64 23.0817 126.617 22.9979 126.628H18.3406C18.1907 126.643 18.0404 126.603 17.9175 126.516C17.8696 126.455 17.8343 126.385 17.8135 126.311C17.7926 126.236 17.7867 126.158 17.7961 126.081V124.814C17.7864 124.737 17.7921 124.659 17.8129 124.585C17.8338 124.51 17.8693 124.44 17.9175 124.38C18.0404 124.292 18.1907 124.253 18.3406 124.268H30.7284C30.8772 124.253 31.0263 124.293 31.1482 124.38C31.197 124.44 31.2331 124.51 31.2545 124.584C31.2759 124.659 31.2822 124.737 31.2729 124.814V126.081C31.28 126.159 31.2715 126.238 31.2478 126.312C31.2242 126.387 31.1858 126.456 31.1351 126.516Z" fill="white"/>
<path d="M50.3876 141.539C50.2657 141.626 50.1166 141.666 49.9678 141.651H48.5804C48.4316 141.666 48.2825 141.626 48.1606 141.539C48.1122 141.479 48.0763 141.409 48.0549 141.335C48.0335 141.26 48.027 141.182 48.036 141.105V134.177C48.0416 134.101 48.0207 134.025 47.9769 133.963C47.9077 133.916 47.824 133.895 47.7408 133.904H39.5413C39.4581 133.895 39.3744 133.916 39.3051 133.963C39.2614 134.025 39.2405 134.101 39.2461 134.177V141.105C39.255 141.182 39.2486 141.26 39.2272 141.335C39.2058 141.409 39.1699 141.479 39.1215 141.539C38.9996 141.626 38.8505 141.666 38.7017 141.651H37.3209C37.172 141.666 37.023 141.626 36.901 141.539C36.8526 141.479 36.8167 141.409 36.7953 141.335C36.7739 141.26 36.7675 141.182 36.7764 141.105V124.814C36.7671 124.737 36.7733 124.659 36.7947 124.584C36.8162 124.509 36.8523 124.44 36.901 124.38C37.023 124.293 37.172 124.253 37.3209 124.268H38.7082C38.857 124.253 39.0061 124.293 39.128 124.38C39.1768 124.44 39.2129 124.509 39.2343 124.584C39.2557 124.659 39.262 124.737 39.2527 124.814V131.271C39.2469 131.35 39.2677 131.429 39.3117 131.495C39.3439 131.523 39.3815 131.544 39.4221 131.556C39.4628 131.569 39.5056 131.572 39.5478 131.567H47.7474C47.7896 131.572 47.8324 131.569 47.8731 131.556C47.9137 131.544 47.9513 131.523 47.9835 131.495C48.0275 131.429 48.0483 131.35 48.0426 131.271V124.814C48.0332 124.737 48.0395 124.659 48.0609 124.584C48.0823 124.509 48.1184 124.44 48.1672 124.38C48.2891 124.293 48.4382 124.253 48.587 124.268H49.9744C50.1232 124.253 50.2723 124.293 50.3942 124.38C50.4429 124.44 50.4791 124.509 50.5005 124.584C50.5219 124.659 50.5281 124.737 50.5188 124.814V141.105C50.5268 141.182 50.5194 141.261 50.4968 141.335C50.4743 141.41 50.4372 141.479 50.3876 141.539Z" fill="white"/>
<path d="M73.1923 141.714C73.1447 141.793 73.0776 141.858 72.9974 141.903C72.9173 141.949 72.8268 141.973 72.7348 141.973C72.6428 141.973 72.5523 141.949 72.4721 141.903C72.392 141.858 72.3248 141.793 72.2772 141.714C72.0805 141.379 71.919 141.025 71.7951 140.657L65.7308 125.012C65.6875 124.892 65.6632 124.767 65.6586 124.64C65.6541 124.585 65.6631 124.531 65.6849 124.481C65.7066 124.431 65.7404 124.387 65.7832 124.353C65.9123 124.286 66.0579 124.256 66.203 124.268H67.5642C67.7597 124.25 67.9557 124.298 68.1217 124.403C68.2799 124.58 68.4014 124.787 68.4792 125.012L72.8119 136.734L76.646 126.005C76.7533 125.705 76.8941 125.418 77.0658 125.15C77.1147 125.076 77.1811 125.016 77.259 124.975C77.3368 124.933 77.4237 124.912 77.5118 124.913C77.5945 124.914 77.6758 124.935 77.7488 124.974C77.8218 125.012 77.8845 125.068 77.9316 125.137C78.1096 125.407 78.2518 125.699 78.3547 126.005L82.1396 136.659L86.4854 125.012C86.568 124.79 86.694 124.588 86.856 124.416C87.0144 124.304 87.2072 124.251 87.4004 124.268H88.7353C88.8815 124.257 89.028 124.286 89.1584 124.353C89.2006 124.387 89.2338 124.431 89.2549 124.481C89.2761 124.531 89.2846 124.586 89.2798 124.64C89.2752 124.767 89.2509 124.892 89.2076 125.012L83.1433 140.657C83.0223 141.026 82.8606 141.381 82.6611 141.714C82.6161 141.79 82.5529 141.853 82.4774 141.899C82.4018 141.944 82.3162 141.97 82.2282 141.974C82.1385 141.969 82.0512 141.943 81.9736 141.898C81.896 141.853 81.8303 141.79 81.7821 141.714C81.5847 141.406 81.4271 141.074 81.3131 140.726L77.4757 130.172L73.6285 140.733C73.5244 141.077 73.3779 141.406 73.1923 141.714Z" fill="white"/>
<path d="M93.1039 140.907C93.0252 141.138 92.8925 141.347 92.7169 141.516C92.5397 141.627 92.3318 141.679 92.1232 141.664H90.8375C90.5095 141.664 90.3423 141.556 90.3423 141.335C90.3587 141.188 90.4009 141.046 90.4669 140.914L97.9154 125.169C98.0715 124.82 98.2535 124.484 98.4598 124.162C98.5048 124.091 98.5667 124.032 98.64 123.991C98.7132 123.949 98.7956 123.927 98.8796 123.925C98.9584 123.929 99.035 123.952 99.1022 123.994C99.1694 124.035 99.2248 124.093 99.2634 124.162C99.461 124.487 99.6384 124.823 99.7947 125.169L107.319 140.914C107.383 141.046 107.425 141.189 107.443 141.335C107.443 141.549 107.269 141.664 106.922 141.664H105.538C105.333 141.681 105.129 141.629 104.957 141.516C104.783 141.346 104.644 141.144 104.547 140.92L98.8304 128.553L93.1039 140.907Z" fill="white"/>
<path d="M121.937 125.012C122.033 124.785 122.176 124.582 122.356 124.416C122.534 124.304 122.742 124.253 122.95 124.268H124.203C124.551 124.268 124.724 124.376 124.724 124.597C124.706 124.743 124.664 124.886 124.6 125.018L117.125 140.763C117.015 141.018 116.891 141.267 116.755 141.51C116.679 141.654 116.583 141.787 116.469 141.905C116.39 141.973 116.288 142.009 116.184 142.007C116.101 142 116.021 141.974 115.951 141.931C115.88 141.887 115.82 141.827 115.777 141.756C115.571 141.444 115.392 141.113 115.243 140.769L107.745 125.025C107.681 124.892 107.64 124.75 107.624 124.603C107.624 124.389 107.794 124.274 108.142 124.274H109.503C109.71 124.253 109.919 124.297 110.1 124.403C110.276 124.568 110.412 124.772 110.497 124.998L116.236 137.366L121.937 125.012Z" fill="white"/>
<path d="M140.199 139.403C140.248 139.463 140.284 139.533 140.306 139.608C140.327 139.682 140.333 139.761 140.323 139.838V141.105C140.333 141.182 140.327 141.26 140.306 141.335C140.284 141.41 140.248 141.479 140.199 141.539C140.077 141.627 139.928 141.666 139.779 141.651H130.399C130.25 141.666 130.101 141.626 129.979 141.539C129.93 141.479 129.894 141.409 129.873 141.335C129.852 141.26 129.845 141.182 129.854 141.105V124.814C129.845 124.737 129.851 124.659 129.872 124.584C129.894 124.509 129.93 124.44 129.979 124.38C130.101 124.293 130.25 124.253 130.399 124.268H139.756C139.905 124.253 140.054 124.293 140.176 124.38C140.224 124.44 140.26 124.509 140.282 124.584C140.303 124.659 140.31 124.737 140.3 124.814V126.081C140.309 126.158 140.303 126.236 140.281 126.311C140.26 126.385 140.224 126.455 140.176 126.515C140.054 126.602 139.905 126.642 139.756 126.627H132.629C132.545 126.617 132.46 126.639 132.393 126.69C132.369 126.719 132.351 126.753 132.34 126.789C132.33 126.825 132.326 126.863 132.33 126.901V131.445C132.321 131.528 132.343 131.612 132.393 131.679C132.46 131.73 132.545 131.752 132.629 131.742H138.913C139.062 131.728 139.21 131.768 139.333 131.854C139.381 131.914 139.417 131.984 139.438 132.058C139.46 132.133 139.466 132.211 139.457 132.288V133.529C139.472 133.681 139.428 133.833 139.333 133.953C139.215 134.049 139.064 134.094 138.913 134.078H132.629C132.545 134.067 132.461 134.088 132.393 134.138C132.345 134.197 132.323 134.273 132.33 134.348V139.018C132.326 139.056 132.33 139.094 132.34 139.13C132.351 139.166 132.369 139.2 132.393 139.229C132.46 139.279 132.545 139.302 132.629 139.291H139.779C139.928 139.276 140.077 139.316 140.199 139.403Z" fill="white"/>
<path d="M156.162 137.63C156.302 137.658 156.43 137.726 156.532 137.827C158.034 139.001 159.544 139.588 161.062 139.588C161.732 139.598 162.399 139.486 163.029 139.259C163.547 139.08 164.002 138.755 164.341 138.324C164.646 137.921 164.808 137.428 164.801 136.922C164.818 136.47 164.688 136.025 164.43 135.655C164.108 135.272 163.695 134.978 163.23 134.799C162.469 134.492 161.687 134.239 160.891 134.042C159.871 133.808 158.88 133.458 157.939 132.999C157.221 132.645 156.608 132.11 156.158 131.446C155.716 130.727 155.497 129.893 155.529 129.05C155.505 128.091 155.771 127.148 156.293 126.344C156.812 125.575 157.537 124.968 158.385 124.594C159.323 124.177 160.341 123.969 161.367 123.985C163.417 123.978 165.409 124.675 167.011 125.959C167.081 126.012 167.143 126.076 167.195 126.147C167.236 126.2 167.258 126.265 167.257 126.331C167.254 126.392 167.237 126.452 167.208 126.506C167.17 126.582 167.129 126.657 167.083 126.729L166.368 127.796C166.319 127.877 166.255 127.95 166.181 128.01C166.127 128.049 166.062 128.071 165.994 128.072C165.84 128.057 165.694 127.996 165.575 127.898C164.947 127.435 164.265 127.05 163.544 126.753C162.845 126.471 162.097 126.328 161.344 126.331C160.772 126.321 160.204 126.428 159.674 126.644C159.216 126.825 158.82 127.135 158.533 127.536C158.257 127.941 158.114 128.424 158.126 128.915C158.108 129.387 158.251 129.852 158.533 130.231C158.858 130.618 159.276 130.917 159.746 131.1C160.457 131.389 161.19 131.621 161.937 131.794C163.002 132.051 164.035 132.426 165.017 132.913C165.73 133.264 166.337 133.799 166.775 134.464C167.181 135.161 167.383 135.96 167.356 136.767C167.373 137.738 167.087 138.689 166.539 139.489C165.974 140.293 165.194 140.92 164.289 141.299C163.252 141.738 162.135 141.954 161.009 141.934C159.931 141.942 158.861 141.748 157.854 141.362C156.876 140.984 155.962 140.457 155.145 139.798C154.961 139.634 154.873 139.492 154.873 139.377C154.887 139.221 154.947 139.073 155.046 138.953L155.788 137.909C155.922 137.718 156.047 137.63 156.162 137.63Z" fill="white"/>
<path d="M173.771 128.428C174.53 127.07 175.642 125.945 176.988 125.173C178.385 124.403 179.953 124 181.547 124C183.141 124 184.709 124.403 186.106 125.173C187.441 125.93 188.545 127.037 189.301 128.375C190.067 129.78 190.468 131.355 190.468 132.956C190.468 134.557 190.067 136.133 189.301 137.537C188.54 138.891 187.422 140.008 186.07 140.766C184.668 141.553 183.085 141.956 181.478 141.934C179.898 141.956 178.339 141.558 176.962 140.779C175.633 140.024 174.533 138.921 173.781 137.587C172.998 136.203 172.596 134.636 172.616 133.045C172.588 131.431 172.987 129.838 173.771 128.428ZM175.998 136.376C176.526 137.353 177.314 138.164 178.274 138.719C179.247 139.286 180.354 139.578 181.478 139.565C182.612 139.574 183.728 139.279 184.709 138.709C185.684 138.143 186.487 137.323 187.034 136.336C187.61 135.306 187.906 134.141 187.89 132.959C187.91 131.767 187.62 130.589 187.048 129.543C186.51 128.566 185.716 127.754 184.752 127.197C183.773 126.633 182.662 126.343 181.534 126.354C180.404 126.343 179.293 126.639 178.317 127.21C177.351 127.777 176.557 128.597 176.021 129.583C175.449 130.632 175.159 131.813 175.178 133.009C175.158 134.183 175.44 135.343 175.998 136.376Z" fill="white"/>
<path d="M199.284 139.229C199.352 139.279 199.437 139.302 199.52 139.291H206.821C206.97 139.276 207.119 139.316 207.241 139.403C207.29 139.463 207.327 139.533 207.348 139.608C207.37 139.682 207.376 139.761 207.366 139.838V141.105C207.376 141.182 207.37 141.26 207.348 141.335C207.327 141.41 207.29 141.479 207.241 141.539C207.119 141.627 206.97 141.666 206.821 141.651H197.31C197.161 141.666 197.012 141.626 196.89 141.539C196.842 141.479 196.806 141.409 196.784 141.335C196.763 141.26 196.756 141.182 196.765 141.105V124.814C196.756 124.737 196.762 124.659 196.784 124.584C196.805 124.509 196.841 124.44 196.89 124.38C197.012 124.293 197.161 124.253 197.31 124.268H198.697C198.846 124.253 198.995 124.293 199.117 124.38C199.166 124.44 199.202 124.509 199.223 124.584C199.245 124.659 199.251 124.737 199.242 124.814V139.018C199.229 139.091 199.245 139.166 199.284 139.229Z" fill="white"/>
<path d="M226.608 138.485C226.034 139.591 225.136 140.493 224.034 141.069C222.863 141.656 221.567 141.95 220.259 141.924C219.008 141.948 217.77 141.666 216.651 141.105C215.586 140.54 214.724 139.653 214.188 138.571C213.554 137.248 213.248 135.792 213.296 134.325V124.814C213.286 124.737 213.293 124.659 213.314 124.584C213.335 124.509 213.372 124.44 213.42 124.38C213.543 124.292 213.693 124.252 213.843 124.268H215.204C215.361 124.251 215.518 124.29 215.647 124.38C215.696 124.44 215.732 124.509 215.754 124.584C215.775 124.659 215.781 124.737 215.772 124.814V134.177C215.772 135.882 216.168 137.206 216.959 138.149C217.751 139.093 218.89 139.565 220.377 139.565C221.267 139.587 222.145 139.359 222.912 138.906C223.622 138.466 224.183 137.822 224.522 137.057C224.913 136.152 225.102 135.173 225.077 134.187V124.814C225.058 124.741 225.058 124.664 225.077 124.59C225.096 124.517 225.133 124.45 225.185 124.395C225.238 124.34 225.303 124.3 225.375 124.277C225.448 124.255 225.524 124.252 225.598 124.268H226.982C227.14 124.25 227.298 124.29 227.428 124.38C227.477 124.44 227.513 124.509 227.535 124.584C227.556 124.659 227.562 124.737 227.553 124.814V134.25C227.595 135.718 227.27 137.174 226.608 138.485Z" fill="white"/>
<path d="M246.271 126.516C246.149 126.603 246 126.642 245.851 126.628H241.197C241.113 126.617 241.029 126.64 240.961 126.69C240.914 126.75 240.892 126.825 240.899 126.901V141.105C240.908 141.182 240.902 141.26 240.881 141.334C240.86 141.409 240.825 141.479 240.777 141.539C240.654 141.626 240.504 141.666 240.354 141.651H238.97C238.82 141.666 238.67 141.626 238.547 141.539C238.499 141.479 238.464 141.409 238.443 141.334C238.422 141.26 238.416 141.182 238.426 141.105V126.901C238.432 126.825 238.41 126.75 238.363 126.69C238.295 126.64 238.211 126.617 238.127 126.628H233.476C233.326 126.643 233.176 126.603 233.053 126.516C233.005 126.455 232.97 126.385 232.949 126.311C232.928 126.236 232.922 126.158 232.932 126.081V124.814C232.922 124.737 232.928 124.659 232.949 124.585C232.97 124.51 233.005 124.44 233.053 124.38C233.176 124.292 233.326 124.253 233.476 124.268H245.851C246 124.253 246.149 124.293 246.271 124.38C246.32 124.44 246.356 124.51 246.377 124.584C246.399 124.659 246.405 124.737 246.395 124.814V126.081C246.404 126.158 246.398 126.236 246.377 126.311C246.355 126.386 246.319 126.455 246.271 126.516Z" fill="white"/>
<path d="M254.264 141.539C254.142 141.626 253.993 141.666 253.844 141.651H252.444C252.295 141.666 252.146 141.626 252.024 141.539C251.975 141.479 251.939 141.409 251.918 141.335C251.897 141.26 251.89 141.182 251.899 141.105V124.814C251.89 124.737 251.896 124.659 251.918 124.584C251.939 124.509 251.975 124.44 252.024 124.38C252.146 124.293 252.295 124.253 252.444 124.268H253.831C253.98 124.253 254.129 124.293 254.251 124.38C254.3 124.44 254.336 124.509 254.357 124.584C254.379 124.659 254.385 124.737 254.375 124.814V141.105C254.386 141.181 254.382 141.259 254.363 141.333C254.344 141.408 254.31 141.478 254.264 141.539Z" fill="white"/>
<path d="M261.85 128.428C262.609 127.07 263.721 125.945 265.067 125.173C266.465 124.403 268.033 124 269.626 124C271.22 124 272.788 124.403 274.185 125.173C275.513 125.925 276.614 127.024 277.37 128.352C278.136 129.757 278.537 131.332 278.537 132.933C278.537 134.534 278.136 136.11 277.37 137.514C276.609 138.868 275.491 139.985 274.139 140.743C272.737 141.53 271.154 141.933 269.548 141.911C267.966 141.934 266.406 141.535 265.028 140.756C263.699 140.002 262.6 138.898 261.85 137.564C261.066 136.181 260.664 134.613 260.686 133.022C260.665 131.415 261.066 129.83 261.85 128.428ZM264.077 136.376C264.605 137.353 265.393 138.164 266.353 138.719C267.326 139.286 268.433 139.578 269.558 139.565C270.691 139.574 271.807 139.279 272.788 138.709C273.763 138.143 274.566 137.323 275.114 136.336C275.688 135.305 275.983 134.141 275.966 132.959C275.987 131.767 275.698 130.589 275.127 129.543C274.589 128.565 273.795 127.754 272.831 127.197C271.849 126.64 270.741 126.348 269.613 126.348C268.486 126.348 267.377 126.64 266.396 127.197C265.429 127.763 264.635 128.583 264.1 129.57C263.551 130.617 263.264 131.783 263.264 132.966C263.264 134.15 263.551 135.315 264.1 136.362L264.077 136.376Z" fill="white"/>
<path d="M296.534 124.38C296.656 124.293 296.805 124.253 296.954 124.268H298.341C298.49 124.253 298.639 124.293 298.761 124.38C298.81 124.44 298.846 124.509 298.867 124.584C298.889 124.659 298.895 124.737 298.886 124.814V141.105C298.886 141.651 298.718 141.924 298.39 141.924C298.237 141.917 298.09 141.86 297.971 141.763C297.744 141.581 297.537 141.377 297.351 141.154L287.301 129.26V141.108C287.311 141.185 287.305 141.263 287.284 141.337C287.263 141.412 287.228 141.482 287.18 141.542C287.057 141.629 286.907 141.669 286.757 141.654H285.373C285.224 141.67 285.075 141.63 284.953 141.542C284.904 141.482 284.867 141.413 284.846 141.338C284.824 141.263 284.818 141.185 284.828 141.108V124.817C284.812 124.602 284.855 124.387 284.953 124.195C284.995 124.13 285.053 124.077 285.123 124.042C285.192 124.007 285.269 123.992 285.347 123.998C285.501 124.005 285.649 124.062 285.77 124.159C285.989 124.339 286.188 124.544 286.363 124.768L296.409 136.662V124.814C296.4 124.737 296.406 124.659 296.428 124.584C296.449 124.509 296.485 124.44 296.534 124.38Z" fill="white"/>
<path d="M305.79 137.63C305.93 137.658 306.059 137.726 306.16 137.827C307.662 139.001 309.172 139.588 310.69 139.588C311.36 139.598 312.027 139.486 312.658 139.259C313.174 139.078 313.629 138.754 313.969 138.324C314.273 137.921 314.434 137.427 314.425 136.922C314.443 136.47 314.313 136.025 314.055 135.655C313.735 135.271 313.321 134.976 312.854 134.799C312.094 134.491 311.312 134.238 310.516 134.042C309.502 133.807 308.519 133.457 307.584 132.999C306.866 132.645 306.252 132.11 305.803 131.446C305.358 130.728 305.137 129.894 305.17 129.05C305.146 128.091 305.413 127.147 305.937 126.344C306.457 125.575 307.182 124.968 308.03 124.594C308.968 124.177 309.985 123.969 311.011 123.985C313.061 123.978 315.051 124.675 316.652 125.959C316.723 126.013 316.786 126.076 316.839 126.147C316.878 126.201 316.9 126.265 316.902 126.331C316.899 126.392 316.882 126.452 316.852 126.506C316.82 126.572 316.777 126.647 316.728 126.729L316.01 127.796C315.961 127.877 315.899 127.949 315.826 128.01C315.771 128.049 315.706 128.071 315.639 128.072C315.485 128.057 315.339 127.996 315.219 127.898C314.59 127.436 313.909 127.052 313.189 126.753C312.488 126.471 311.74 126.328 310.985 126.331C310.413 126.321 309.845 126.428 309.315 126.644C308.859 126.826 308.464 127.135 308.177 127.536C307.9 127.941 307.757 128.423 307.767 128.915C307.75 129.388 307.895 129.852 308.177 130.231C308.502 130.619 308.92 130.918 309.391 131.1C310.102 131.39 310.834 131.622 311.582 131.794C312.647 132.051 313.68 132.426 314.661 132.913C315.374 133.265 315.98 133.8 316.419 134.464C316.826 135.161 317.027 135.96 317 136.767C317.017 137.738 316.732 138.689 316.183 139.489C315.617 140.293 314.836 140.92 313.93 141.299C312.893 141.739 311.776 141.955 310.65 141.934C309.572 141.942 308.502 141.748 307.495 141.362C306.516 140.984 305.601 140.457 304.783 139.798C304.602 139.634 304.51 139.492 304.51 139.377C304.526 139.222 304.587 139.074 304.684 138.953L305.429 137.909C305.55 137.718 305.672 137.63 305.79 137.63Z" fill="white"/>
<path d="M181.36 92.0084C164.404 88.2039 169.159 77.034 166.818 68.8919C166.283 67.0417 165.11 65.4422 163.509 64.3784C161.909 63.3146 159.984 62.8556 158.077 63.0832C152.888 63.669 146.302 66.5289 140.622 66.1735C139.906 66.1379 139.207 65.9461 138.574 65.6113C137.94 65.2764 137.386 64.8068 136.952 64.2351C136.518 63.6634 136.213 63.0035 136.06 62.3014C135.906 61.5994 135.907 60.8722 136.063 60.1706C137.811 52.8446 149.454 42.6291 156.726 30.8175C157.21 30.0471 157.602 29.2219 157.893 28.359C157.904 28.3299 157.912 28.3002 157.92 28.2702C158.148 27.5313 158.212 26.751 158.107 25.9845C158.002 25.218 157.73 24.4841 157.311 23.8345C156.892 23.185 156.336 22.6357 155.683 22.2256C155.029 21.8154 154.293 21.5544 153.528 21.4609C151.727 21.2414 149.914 21.1315 148.1 21.1318C142.208 21.1322 136.376 22.3155 130.947 24.6121C125.518 26.9088 120.602 30.2722 116.488 34.5044C112.374 38.7367 109.146 43.7521 106.993 49.2554C104.84 54.7586 103.807 60.6385 103.954 66.5487C104.524 90.1753 123.875 109.405 147.454 109.751C154.026 109.856 160.538 108.484 166.513 105.737C172.488 102.989 177.775 98.9349 181.987 93.8712C182.112 93.7195 182.197 93.5382 182.233 93.3445C182.268 93.1508 182.254 92.9511 182.191 92.7645C182.129 92.5778 182.019 92.4103 181.874 92.278C181.728 92.1457 181.552 92.0529 181.36 92.0084Z" fill="url(#paint0_linear_26_431)"/>
<path d="M175.257 24.2682C176.733 23.6547 178.027 22.6682 179.011 21.4047C179.996 20.1412 180.638 18.6436 180.875 17.0575C181.05 15.7552 181.546 14.5173 182.318 13.4559C183.09 12.3945 184.113 11.5431 185.296 10.9789L185.968 10.6695C186.928 10.2031 187.971 9.93368 189.036 9.87717C190.101 9.82065 191.167 9.97815 192.171 10.3404C193.193 10.7372 194.313 10.8085 195.377 10.5447C196.441 10.2808 197.399 9.69461 198.12 8.86565C198.841 8.0367 199.29 7.00519 199.406 5.91126C199.522 4.81734 199.3 3.71402 198.77 2.75119C198.098 1.56171 197.003 0.671019 195.704 0.257787C194.406 -0.155445 192.999 -0.0606587 191.767 0.523133C190.54 1.11678 189.587 2.16055 189.104 3.43902C188.351 5.46278 186.833 7.10674 184.88 8.01362L184.302 8.2802C183.065 8.83663 181.71 9.0779 180.357 8.9826C179.005 8.88729 177.697 8.45836 176.549 7.73388C175.265 6.94142 173.807 6.47589 172.302 6.37781C170.798 6.27973 169.292 6.55206 167.916 7.1711C165.655 8.14738 163.872 9.9852 162.961 12.2802C162.05 14.5753 162.084 17.1396 163.057 19.409C164.03 21.6784 165.862 23.467 168.149 24.3814C170.436 25.2957 172.992 25.261 175.253 24.2847L175.257 24.2682Z" fill="url(#paint1_linear_26_431)"/>
<path d="M207.133 33.026C205.372 32.2766 203.429 32.0681 201.549 32.4269C199.67 32.7857 197.939 33.6957 196.575 35.0417C195.211 36.3878 194.276 38.1095 193.887 39.9891C193.498 41.8686 193.674 43.8217 194.391 45.6012C196.064 49.7479 195.703 54.4476 193.735 58.4693L191.328 63.4059C190.738 64.6647 189.704 65.6591 188.425 66.1967C187.421 66.6014 186.318 66.6951 185.26 66.4657C184.202 66.2364 183.237 65.6945 182.489 64.9099L177.546 59.7166C176.772 58.8782 176.188 57.8817 175.834 56.7955C175.481 55.7093 175.365 54.5592 175.496 53.4241C175.616 52.2063 175.394 50.9791 174.856 49.8812C174.317 48.7832 173.484 47.8582 172.449 47.2105C169.72 45.4959 165.64 46.266 163.718 48.8561C162.98 49.8565 162.54 51.0466 162.448 52.288C162.357 53.5295 162.618 54.7716 163.202 55.87C163.786 56.9685 164.668 57.8783 165.746 58.4939C166.824 59.1095 168.055 59.4057 169.294 59.348C170.432 59.2678 171.574 59.4357 172.641 59.8402C173.708 60.2446 174.675 60.8761 175.476 61.6912L180.563 67.036C181.134 67.6501 181.547 68.3946 181.766 69.205C181.984 70.0153 182.003 70.8671 181.82 71.6862C181.599 72.7342 181.636 73.8203 181.928 74.8505C182.221 75.8806 182.759 76.8237 183.497 77.5977C184.235 78.3717 185.15 78.9534 186.162 79.2922C187.175 79.6311 188.254 79.7168 189.308 79.542C190.361 79.3672 191.355 78.9372 192.205 78.2893C193.055 77.6413 193.735 76.795 194.185 75.8238C194.635 74.8526 194.842 73.7859 194.788 72.7161C194.735 71.6464 194.421 70.606 193.876 69.6853C193.47 68.9762 193.244 68.1773 193.22 67.3598C193.195 66.5422 193.372 65.7312 193.735 64.9988L196.247 59.8318C198.215 55.764 201.738 52.5519 206.07 51.275C207.988 50.713 209.684 49.5695 210.928 48.0013C212.172 46.4332 212.901 44.5173 213.017 42.5166C213.132 40.5158 212.627 38.5283 211.572 36.8267C210.517 35.1251 208.963 33.7929 207.123 33.0128L207.133 33.026Z" fill="url(#paint2_linear_26_431)"/>
</g>
<defs>
<linearGradient id="paint0_linear_26_431" x1="101.418" y1="25.1634" x2="192.06" y2="113.478" gradientUnits="userSpaceOnUse">
<stop stop-color="#A25FA5"/>
<stop offset="1" stop-color="#55C8EB"/>
</linearGradient>
<linearGradient id="paint1_linear_26_431" x1="147.162" y1="-21.7871" x2="237.804" y2="66.5275" gradientUnits="userSpaceOnUse">
<stop stop-color="#A25FA5"/>
<stop offset="1" stop-color="#55C8EB"/>
</linearGradient>
<linearGradient id="paint2_linear_26_431" x1="132.531" y1="-6.7664" x2="223.169" y2="81.5482" gradientUnits="userSpaceOnUse">
<stop stop-color="#A25FA5"/>
<stop offset="1" stop-color="#55C8EB"/>
</linearGradient>
<clipPath id="clip0_26_431">
<rect width="317" height="142" fill="white"/>
</clipPath>
</defs>
</svg>
