<svg width="143" height="64" viewBox="0 0 143 64" fill="none" xmlns="http://www.w3.org/2000/svg">
<g clip-path="url(#clip0_26_251)">
<path d="M5.9625 60.9993C5.99799 60.9905 6.03516 60.991 6.07037 61.0009C6.10559 61.0108 6.13765 61.0296 6.16343 61.0556C6.18921 61.0816 6.20783 61.1139 6.21748 61.1492C6.22712 61.1846 6.22746 61.2218 6.21846 61.2574V61.7721C6.22295 61.8067 6.22041 61.8419 6.21101 61.8756C6.2016 61.9092 6.18552 61.9406 6.16372 61.9679C6.10459 62.0078 6.03339 62.0256 5.9625 62.0183H5.10289V63.5847C5.11155 63.6203 5.11092 63.6576 5.10105 63.6929C5.09118 63.7282 5.07241 63.7604 5.04655 63.7863C5.02068 63.8122 4.98859 63.831 4.95337 63.8409C4.91815 63.8508 4.88099 63.8515 4.84545 63.8428H4.23144C4.19679 63.8468 4.16168 63.8439 4.12815 63.8342C4.09463 63.8246 4.06335 63.8083 4.03614 63.7864C3.99671 63.727 3.97894 63.6557 3.98584 63.5847V62.0183H0.397969C0.294886 62.0263 0.191775 62.0031 0.102062 61.9516C0.0721984 61.9322 0.0477109 61.9056 0.0308917 61.8743C0.0140725 61.8429 0.00547102 61.8077 0.00589227 61.7721C0.00509123 61.7199 0.0189331 61.6685 0.0458403 61.6238C0.0883982 61.554 0.134829 61.4866 0.184916 61.422L4.36608 56.2171C4.43978 56.1204 4.52415 56.0323 4.6176 55.9546C4.67228 55.9081 4.74124 55.8819 4.8129 55.8804C4.85525 55.878 4.8975 55.8866 4.93559 55.9053C4.97369 55.924 5.00633 55.9522 5.03039 55.9872C5.08746 56.0993 5.11255 56.2251 5.10289 56.3506V61.0067L5.9625 60.9993ZM4.00803 58.0787L1.697 60.9993H4.00803V58.0787Z" fill="white"/>
<path d="M14.0452 57.0211C13.9902 57.0602 13.923 57.0781 13.8559 57.0715H11.7564C11.7186 57.0668 11.6804 57.0769 11.6499 57.0997C11.6287 57.1265 11.6186 57.1605 11.6218 57.1946V63.5965C11.626 63.6312 11.6233 63.6663 11.6139 63.6999C11.6045 63.7335 11.5886 63.765 11.567 63.7923C11.5115 63.8315 11.4437 63.8494 11.3762 63.8428H10.7547C10.6876 63.8497 10.6202 63.8318 10.5654 63.7923C10.5432 63.7653 10.5267 63.734 10.517 63.7003C10.5074 63.6666 10.5047 63.6313 10.5091 63.5965V57.1946C10.5123 57.1605 10.5022 57.1265 10.481 57.0997C10.4505 57.0769 10.4123 57.0668 10.3745 57.0715H8.27357C8.20596 57.0784 8.13816 57.0605 8.08271 57.0211C8.06113 56.9937 8.04518 56.9623 8.03578 56.9287C8.02639 56.8951 8.02373 56.8599 8.02797 56.8253V56.2542C8.02356 56.2196 8.02614 56.1844 8.03554 56.1507C8.04495 56.1171 8.06098 56.0857 8.08271 56.0584C8.13816 56.019 8.20596 56.0011 8.27357 56.008H13.8618C13.9289 56.0013 13.9962 56.0192 14.0512 56.0584C14.0731 56.0856 14.0894 56.1169 14.0991 56.1506C14.1088 56.1842 14.1116 56.2195 14.1074 56.2542V56.8253C14.1106 56.8604 14.1068 56.8959 14.0961 56.9295C14.0854 56.9631 14.0681 56.9943 14.0452 57.0211Z" fill="white"/>
<path d="M22.7301 63.7923C22.6751 63.8315 22.6078 63.8494 22.5407 63.8428H21.9149C21.8477 63.8494 21.7805 63.8315 21.7255 63.7923C21.7036 63.7651 21.6874 63.7337 21.6778 63.7001C21.6681 63.6665 21.6652 63.6313 21.6693 63.5965V60.4742C21.6718 60.4399 21.6624 60.4059 21.6426 60.3778C21.6114 60.3565 21.5736 60.3471 21.5361 60.3511H17.8373C17.7997 60.3471 17.762 60.3565 17.7307 60.3778C17.711 60.4059 17.7016 60.4399 17.7041 60.4742V63.5965C17.7081 63.6313 17.7053 63.6665 17.6956 63.7001C17.686 63.7337 17.6697 63.7651 17.6479 63.7923C17.5929 63.8315 17.5256 63.8494 17.4585 63.8428H16.8356C16.7685 63.8494 16.7012 63.8315 16.6462 63.7923C16.6244 63.7651 16.6082 63.7337 16.5985 63.7001C16.5889 63.6665 16.586 63.6313 16.59 63.5965V56.2542C16.5858 56.2195 16.5886 56.1842 16.5983 56.1506C16.608 56.1169 16.6243 56.0856 16.6462 56.0584C16.7012 56.0192 16.7685 56.0013 16.8356 56.008H17.4615C17.5286 56.0013 17.5959 56.0192 17.6509 56.0584C17.6728 56.0856 17.6891 56.1169 17.6988 56.1506C17.7085 56.1842 17.7113 56.2195 17.7071 56.2542V59.1644C17.7045 59.2001 17.7138 59.2356 17.7337 59.2653C17.7482 59.2779 17.7652 59.2873 17.7835 59.2929C17.8019 59.2985 17.8212 59.3002 17.8402 59.2979H21.5391C21.5581 59.3002 21.5774 59.2985 21.5958 59.2929C21.6141 59.2873 21.6311 59.2779 21.6456 59.2653C21.6654 59.2356 21.6748 59.2001 21.6722 59.1644V56.2542C21.668 56.2195 21.6708 56.1842 21.6805 56.1506C21.6902 56.1169 21.7065 56.0856 21.7285 56.0584C21.7834 56.0192 21.8507 56.0013 21.9178 56.008H22.5437C22.6108 56.0013 22.6781 56.0192 22.7331 56.0584C22.755 56.0856 22.7713 56.1169 22.781 56.1506C22.7907 56.1842 22.7935 56.2195 22.7893 56.2542V63.5965C22.7929 63.6315 22.7895 63.6668 22.7794 63.7004C22.7692 63.734 22.7525 63.7653 22.7301 63.7923Z" fill="white"/>
<path d="M33.0174 63.871C32.9959 63.9066 32.9657 63.936 32.9295 63.9565C32.8933 63.9769 32.8525 63.9877 32.811 63.9877C32.7695 63.9877 32.7287 63.9769 32.6925 63.9565C32.6564 63.936 32.6261 63.9066 32.6046 63.871C32.5159 63.7202 32.443 63.5607 32.3871 63.3948L29.6515 56.3432C29.632 56.2894 29.621 56.2328 29.6189 56.1756C29.6169 56.1511 29.621 56.1265 29.6308 56.104C29.6406 56.0814 29.6558 56.0617 29.6751 56.0465C29.7334 56.016 29.799 56.0026 29.8645 56.008H30.4785C30.5667 56.0001 30.6551 56.0214 30.73 56.0688C30.8014 56.1487 30.8562 56.2419 30.8913 56.3432L32.8458 61.6267L34.5754 56.7912C34.6238 56.6559 34.6873 56.5265 34.7647 56.4055C34.7868 56.3724 34.8168 56.3453 34.8519 56.3266C34.887 56.308 34.9262 56.2984 34.966 56.2987C35.0033 56.2991 35.0399 56.3085 35.0729 56.3261C35.1058 56.3436 35.1341 56.3688 35.1553 56.3996C35.2356 56.5213 35.2998 56.6529 35.3462 56.7912L37.0536 61.5926L39.014 56.3432C39.0512 56.2434 39.1081 56.1521 39.1812 56.0747C39.2526 56.0242 39.3396 56.0005 39.4268 56.008H40.0289C40.0949 56.0029 40.1609 56.0163 40.2198 56.0465C40.2388 56.0619 40.2538 56.0817 40.2633 56.1042C40.2729 56.1267 40.2767 56.1512 40.2745 56.1756C40.2725 56.2328 40.2615 56.2894 40.242 56.3432L37.5063 63.3948C37.4518 63.5612 37.3788 63.7209 37.2888 63.871C37.2685 63.9052 37.24 63.9338 37.2059 63.9543C37.1718 63.9747 37.1332 63.9864 37.0935 63.9881C37.0531 63.9862 37.0137 63.9745 36.9787 63.9541C36.9437 63.9337 36.914 63.9052 36.8923 63.871C36.8033 63.7322 36.7322 63.5827 36.6807 63.426L34.9497 58.669L33.2142 63.4289C33.1672 63.5839 33.1011 63.7324 33.0174 63.871Z" fill="white"/>
<path d="M41.9997 63.5075C41.9642 63.6117 41.9043 63.7058 41.8251 63.782C41.7452 63.8322 41.6514 63.8555 41.5573 63.8487H40.9773C40.8294 63.8487 40.7539 63.7998 40.7539 63.7004C40.7613 63.6342 40.7803 63.57 40.8101 63.5105L44.1702 56.4144C44.2406 56.2572 44.3227 56.1054 44.4158 55.9605C44.4361 55.9284 44.464 55.9018 44.497 55.8832C44.5301 55.8646 44.5672 55.8544 44.6051 55.8537C44.6407 55.8552 44.6752 55.8658 44.7055 55.8845C44.7358 55.9032 44.7609 55.9294 44.7782 55.9605C44.8674 56.1067 44.9474 56.2583 45.0179 56.4144L48.412 63.5105C48.4411 63.5702 48.4601 63.6344 48.4682 63.7004C48.4682 63.7968 48.3898 63.8487 48.233 63.8487H47.6086C47.5163 63.8564 47.4241 63.8329 47.3467 63.782C47.2682 63.7054 47.2054 63.6142 47.1618 63.5135L44.5829 57.9392L41.9997 63.5075Z" fill="white"/>
<path d="M55.0062 56.3432C55.0496 56.2412 55.1142 56.1497 55.1956 56.0747C55.2756 56.0245 55.3694 56.0011 55.4634 56.008H56.0286C56.1854 56.008 56.2639 56.0569 56.2639 56.1563C56.2557 56.2223 56.2367 56.2864 56.2076 56.3462L52.8358 63.4423C52.786 63.5574 52.7302 63.6698 52.6686 63.779C52.6345 63.8442 52.5911 63.9042 52.5399 63.957C52.5042 63.9878 52.4583 64.0042 52.4111 64.003C52.3739 64 52.3378 63.9883 52.3059 63.9687C52.274 63.9491 52.2472 63.9222 52.2277 63.8902C52.1346 63.7492 52.0539 63.6003 51.9865 63.4452L48.6043 56.3491C48.5756 56.2894 48.5571 56.2252 48.5496 56.1593C48.5496 56.0629 48.6265 56.0109 48.7833 56.0109H49.3973C49.4909 56.0011 49.5852 56.0214 49.6666 56.0688C49.7461 56.1433 49.8074 56.2352 49.8456 56.3373L52.4348 61.9115L55.0062 56.3432Z" fill="white"/>
<path d="M63.2443 62.8297C63.2665 62.8567 63.2829 62.8881 63.2926 62.9217C63.3023 62.9554 63.305 62.9907 63.3005 63.0255V63.5965C63.305 63.6313 63.3023 63.6666 63.2926 63.7003C63.2829 63.7339 63.2665 63.7653 63.2443 63.7923C63.1894 63.8317 63.122 63.8497 63.0549 63.8428H58.8234C58.7563 63.8494 58.689 63.8315 58.634 63.7923C58.6122 63.7651 58.596 63.7337 58.5863 63.7001C58.5767 63.6665 58.5738 63.6313 58.5778 63.5965V56.2542C58.5736 56.2195 58.5764 56.1842 58.5861 56.1506C58.5957 56.1169 58.6121 56.0856 58.634 56.0584C58.689 56.0192 58.7563 56.0013 58.8234 56.008H63.0445C63.1117 56.0013 63.1789 56.0192 63.2339 56.0584C63.2559 56.0856 63.2722 56.1169 63.2819 56.1506C63.2915 56.1842 63.2943 56.2195 63.2901 56.2542V56.8253C63.2942 56.86 63.2913 56.8952 63.2816 56.9288C63.272 56.9624 63.2558 56.9938 63.2339 57.0211C63.1789 57.0602 63.1117 57.0781 63.0445 57.0715H59.8295C59.7917 57.0668 59.7535 57.0769 59.723 57.0997C59.7122 57.1128 59.7042 57.128 59.6994 57.1443C59.6945 57.1606 59.693 57.1777 59.6949 57.1946V59.243C59.6906 59.2805 59.7006 59.3181 59.723 59.3484C59.7535 59.3712 59.7917 59.3813 59.8295 59.3765H62.6643C62.7314 59.3703 62.7985 59.3882 62.8537 59.427C62.8755 59.4543 62.8917 59.4856 62.9014 59.5192C62.911 59.5528 62.9139 59.588 62.9099 59.6228V60.182C62.9167 60.2507 62.8965 60.3193 62.8537 60.3733C62.8004 60.4163 62.7324 60.4366 62.6643 60.4297H59.8295C59.7919 60.4246 59.7538 60.4341 59.723 60.4564C59.7015 60.4831 59.6914 60.5172 59.6949 60.5513V62.6561C59.693 62.673 59.6945 62.6901 59.6994 62.7064C59.7042 62.7227 59.7122 62.7379 59.723 62.7511C59.7535 62.7738 59.7917 62.7839 59.8295 62.7792H63.0549C63.122 62.7723 63.1894 62.7903 63.2443 62.8297Z" fill="white"/>
<path d="M70.445 62.0302C70.5082 62.0428 70.5663 62.0738 70.6122 62.1192C71.2898 62.6482 71.9709 62.9127 72.6554 62.9127C72.9578 62.9172 73.2585 62.867 73.5431 62.7644C73.7766 62.6837 73.982 62.5375 74.1349 62.3432C74.2724 62.1616 74.3454 61.9392 74.3421 61.7113C74.3501 61.5077 74.2914 61.3071 74.1749 61.1402C74.0298 60.9679 73.8435 60.8352 73.6334 60.7545C73.2901 60.6162 72.9376 60.5022 72.5785 60.4134C72.1182 60.308 71.6715 60.1502 71.2469 59.9432C70.9231 59.7836 70.6462 59.5423 70.4435 59.2431C70.2439 58.9194 70.145 58.5435 70.1594 58.1632C70.1488 57.7312 70.269 57.3061 70.5042 56.9439C70.7384 56.5971 71.0656 56.3235 71.4481 56.1548C71.8713 55.9669 72.3302 55.8733 72.793 55.8804C73.7181 55.8776 74.6165 56.1916 75.3393 56.7704C75.3709 56.7943 75.3989 56.8228 75.4221 56.8549C75.4406 56.8787 75.4505 56.9079 75.4503 56.938C75.4489 56.9656 75.4413 56.9924 75.4281 57.0166C75.4111 57.0512 75.3924 57.0849 75.3718 57.1175L75.0493 57.5981C75.0268 57.6348 74.9983 57.6674 74.965 57.6945C74.9404 57.7123 74.911 57.7222 74.8806 57.7227C74.8112 57.7157 74.7453 57.6884 74.6912 57.6441C74.408 57.4353 74.1005 57.262 73.7754 57.1279C73.4598 57.0009 73.1227 56.9364 72.7826 56.938C72.5247 56.9335 72.2685 56.9814 72.0296 57.0789C71.823 57.1605 71.6442 57.3001 71.5147 57.4809C71.3901 57.6637 71.3259 57.8811 71.3312 58.1024C71.3229 58.3154 71.3876 58.5248 71.5147 58.6957C71.6615 58.8702 71.8498 59.0049 72.0621 59.0873C72.3828 59.2177 72.7133 59.3223 73.0504 59.4003C73.5309 59.5158 73.9969 59.685 74.4397 59.9046C74.7613 60.0627 75.035 60.3039 75.2328 60.6032C75.4161 60.9176 75.5069 61.2776 75.4946 61.6416C75.5023 62.079 75.3735 62.5078 75.1262 62.8682C74.8712 63.2305 74.5194 63.5133 74.1113 63.6841C73.6434 63.8819 73.1394 63.9794 72.6317 63.9703C72.1454 63.974 71.6627 63.8864 71.2084 63.7122C70.7672 63.5421 70.3549 63.3044 69.9863 63.0077C69.9035 62.9335 69.8635 62.8697 69.8635 62.8178C69.87 62.7476 69.8973 62.681 69.9419 62.6265L70.2763 62.1563C70.337 62.0702 70.3932 62.0302 70.445 62.0302Z" fill="white"/>
<path d="M78.3886 57.8829C78.7309 57.2711 79.2326 56.764 79.84 56.4159C80.4703 56.069 81.1776 55.8871 81.8966 55.8871C82.6156 55.8871 83.3229 56.069 83.9531 56.4159C84.5551 56.7571 85.0532 57.256 85.3942 57.8591C85.7397 58.4922 85.9208 59.2022 85.9208 59.9239C85.9208 60.6455 85.7397 61.3556 85.3942 61.9886C85.0509 62.5986 84.5467 63.1021 83.9369 63.4438C83.3045 63.7986 82.5901 63.9802 81.8655 63.9703C81.1525 63.9803 80.4495 63.8006 79.8282 63.4497C79.2285 63.1095 78.7324 62.6121 78.393 62.0109C78.0401 61.3873 77.8588 60.6809 77.8678 59.9639C77.8551 59.2363 78.0348 58.5183 78.3886 57.8829ZM79.3932 61.465C79.6316 61.9054 79.987 62.271 80.42 62.5211C80.8587 62.7767 81.3582 62.9084 81.8655 62.9024C82.377 62.9067 82.8802 62.7735 83.3229 62.5167C83.7625 62.2618 84.125 61.8922 84.3719 61.4472C84.6317 60.9828 84.7648 60.4579 84.758 59.9254C84.7669 59.3877 84.6358 58.8571 84.3778 58.3857C84.1352 57.9451 83.777 57.5794 83.3421 57.3281C82.9007 57.0742 82.3996 56.9431 81.8907 56.9484C81.381 56.9433 80.8795 57.0766 80.4392 57.334C80.0035 57.5896 79.6455 57.9593 79.4036 58.4035C79.1457 58.8765 79.0147 59.4086 79.0233 59.9476C79.0143 60.4769 79.1418 60.9996 79.3932 61.465Z" fill="white"/>
<path d="M89.8979 62.7511C89.9285 62.7738 89.9667 62.7839 90.0045 62.7792H93.2979C93.3651 62.7723 93.4324 62.7903 93.4873 62.8297C93.5095 62.8567 93.526 62.8881 93.5356 62.9217C93.5453 62.9554 93.548 62.9907 93.5435 63.0255V63.5965C93.548 63.6313 93.5453 63.6666 93.5356 63.7003C93.526 63.7339 93.5095 63.7653 93.4873 63.7923C93.4324 63.8317 93.3651 63.8497 93.2979 63.8428H89.0073C88.9401 63.8494 88.8729 63.8315 88.8179 63.7923C88.796 63.7651 88.7798 63.7337 88.7702 63.7001C88.7605 63.6665 88.7576 63.6313 88.7617 63.5965V56.2542C88.7575 56.2195 88.7603 56.1842 88.7699 56.1506C88.7796 56.1169 88.7959 56.0856 88.8179 56.0584C88.8729 56.0192 88.9401 56.0013 89.0073 56.008H89.6331C89.7002 56.0013 89.7675 56.0192 89.8225 56.0584C89.8445 56.0856 89.8608 56.1169 89.8704 56.1506C89.8801 56.1842 89.8829 56.2195 89.8787 56.2542V62.6561C89.8732 62.6891 89.88 62.7229 89.8979 62.7511Z" fill="white"/>
<path d="M102.224 62.4158C101.965 62.9142 101.56 63.3207 101.062 63.5802C100.534 63.8449 99.95 63.9773 99.3596 63.9659C98.7953 63.9763 98.2369 63.8496 97.7321 63.5965C97.2515 63.3419 96.8629 62.9424 96.6209 62.4544C96.335 61.8584 96.1969 61.202 96.2185 60.5409V56.2542C96.2143 56.2195 96.2171 56.1842 96.2268 56.1506C96.2364 56.1169 96.2527 56.0856 96.2747 56.0584C96.3302 56.019 96.398 56.0011 96.4656 56.008H97.0796C97.15 56.0003 97.2209 56.0182 97.2793 56.0584C97.3013 56.0856 97.3176 56.1169 97.3273 56.1506C97.3369 56.1842 97.3397 56.2195 97.3355 56.2542V60.4742C97.3355 61.2425 97.5141 61.8393 97.8711 62.2645C98.2282 62.6898 98.7421 62.9024 99.4128 62.9024C99.8142 62.9125 100.21 62.8097 100.556 62.6057C100.877 62.4072 101.13 62.1167 101.283 61.7721C101.459 61.3643 101.544 60.9229 101.533 60.4786V56.2542C101.524 56.2211 101.524 56.1864 101.533 56.1533C101.542 56.1202 101.558 56.0899 101.582 56.0652C101.606 56.0406 101.635 56.0223 101.668 56.0123C101.7 56.0023 101.735 56.0008 101.768 56.008H102.393C102.464 55.9999 102.535 56.0178 102.594 56.0584C102.616 56.0856 102.632 56.1169 102.642 56.1506C102.651 56.1842 102.654 56.2195 102.65 56.2542V60.5068C102.669 61.1688 102.522 61.825 102.224 62.4158Z" fill="white"/>
<path d="M111.094 57.0211C111.039 57.0602 110.972 57.0781 110.904 57.0715H108.805C108.767 57.0668 108.729 57.0769 108.698 57.0997C108.677 57.1265 108.667 57.1605 108.67 57.1946V63.5965C108.675 63.6312 108.672 63.6663 108.663 63.6999C108.653 63.7335 108.637 63.765 108.616 63.7923C108.56 63.8315 108.492 63.8494 108.425 63.8428H107.8C107.733 63.8494 107.665 63.8315 107.61 63.7923C107.588 63.765 107.572 63.7335 107.563 63.6999C107.553 63.6663 107.551 63.6312 107.555 63.5965V57.1946C107.558 57.1605 107.548 57.1265 107.527 57.0997C107.496 57.0769 107.458 57.0668 107.42 57.0715H105.322C105.255 57.0784 105.187 57.0605 105.131 57.0211C105.11 56.9937 105.094 56.9623 105.084 56.9287C105.075 56.8951 105.072 56.8599 105.077 56.8253V56.2542C105.072 56.2196 105.075 56.1844 105.084 56.1507C105.094 56.1171 105.11 56.0857 105.131 56.0584C105.187 56.019 105.255 56.0011 105.322 56.008H110.904C110.972 56.0013 111.039 56.0192 111.094 56.0584C111.116 56.0856 111.132 56.1169 111.142 56.1506C111.151 56.1842 111.154 56.2195 111.15 56.2542V56.8253C111.154 56.86 111.151 56.8952 111.142 56.9288C111.132 56.9624 111.116 56.9938 111.094 57.0211Z" fill="white"/>
<path d="M114.699 63.7923C114.644 63.8315 114.577 63.8494 114.51 63.8428H113.878C113.811 63.8494 113.744 63.8315 113.689 63.7923C113.667 63.7651 113.651 63.7337 113.641 63.7001C113.632 63.6665 113.629 63.6313 113.633 63.5965V56.2542C113.629 56.2195 113.631 56.1842 113.641 56.1506C113.651 56.1169 113.667 56.0856 113.689 56.0584C113.744 56.0192 113.811 56.0013 113.878 56.008H114.504C114.571 56.0013 114.639 56.0192 114.694 56.0584C114.716 56.0856 114.732 56.1169 114.742 56.1506C114.751 56.1842 114.754 56.2195 114.75 56.2542V63.5965C114.755 63.6309 114.753 63.6659 114.744 63.6995C114.735 63.7331 114.72 63.7646 114.699 63.7923Z" fill="white"/>
<path d="M118.122 57.8829C118.464 57.2711 118.966 56.764 119.573 56.4159C120.203 56.069 120.911 55.8871 121.63 55.8871C122.349 55.8871 123.056 56.069 123.686 56.4159C124.285 56.7549 124.781 57.25 125.123 57.8487C125.468 58.4818 125.649 59.1919 125.649 59.9135C125.649 60.6351 125.468 61.3452 125.123 61.9783C124.779 62.5883 124.275 63.0917 123.665 63.4334C123.033 63.788 122.319 63.9696 121.594 63.96C120.88 63.9701 120.177 63.7904 119.555 63.4393C118.956 63.0995 118.46 62.602 118.122 62.0005C117.768 61.3772 117.587 60.6706 117.596 59.9536C117.587 59.229 117.768 58.5148 118.122 57.8829ZM119.126 61.465C119.365 61.9054 119.72 62.271 120.153 62.5211C120.592 62.7767 121.091 62.9084 121.598 62.9024C122.11 62.9067 122.613 62.7735 123.056 62.5167C123.495 62.2618 123.858 61.8922 124.105 61.4472C124.364 60.9826 124.497 60.4577 124.489 59.9254C124.499 59.3879 124.368 58.8572 124.111 58.3857C123.868 57.9449 123.51 57.5792 123.075 57.3281C122.632 57.0772 122.132 56.9454 121.624 56.9454C121.115 56.9454 120.615 57.0772 120.172 57.3281C119.736 57.5831 119.378 57.953 119.137 58.3976C118.889 58.8696 118.759 59.395 118.759 59.9283C118.759 60.4617 118.889 60.9871 119.137 61.4591L119.126 61.465Z" fill="white"/>
<path d="M133.768 56.0584C133.823 56.0192 133.89 56.0013 133.957 56.008H134.583C134.65 56.0013 134.717 56.0192 134.772 56.0584C134.794 56.0856 134.811 56.1169 134.82 56.1506C134.83 56.1842 134.833 56.2195 134.828 56.2542V63.5965C134.828 63.8428 134.753 63.9659 134.605 63.9659C134.536 63.9626 134.469 63.9371 134.416 63.8932C134.314 63.8113 134.22 63.7193 134.136 63.6188L129.603 58.2581V63.598C129.607 63.6327 129.604 63.6678 129.595 63.7014C129.586 63.735 129.57 63.7664 129.548 63.7938C129.492 63.833 129.425 63.8509 129.357 63.8443H128.733C128.666 63.8512 128.598 63.8332 128.543 63.7938C128.521 63.7668 128.505 63.7354 128.495 63.7018C128.485 63.6681 128.483 63.6328 128.487 63.598V56.2557C128.48 56.1588 128.499 56.0619 128.543 55.9753C128.562 55.9458 128.589 55.922 128.62 55.9063C128.651 55.8907 128.686 55.8838 128.721 55.8863C128.791 55.8896 128.858 55.9151 128.912 55.959C129.011 56.0403 129.101 56.1324 129.18 56.2334L133.711 61.5941V56.2542C133.707 56.2195 133.71 56.1842 133.72 56.1506C133.729 56.1169 133.746 56.0856 133.768 56.0584Z" fill="white"/>
<path d="M137.943 62.0302C138.006 62.0428 138.064 62.0738 138.11 62.1192C138.788 62.6482 139.469 62.9127 140.153 62.9127C140.456 62.9172 140.757 62.867 141.041 62.7644C141.274 62.6832 141.48 62.537 141.633 62.3432C141.77 62.1615 141.842 61.939 141.839 61.7113C141.847 61.5077 141.788 61.3071 141.671 61.1402C141.527 60.9671 141.34 60.8342 141.13 60.7545C140.787 60.6158 140.434 60.5018 140.075 60.4134C139.618 60.3072 139.174 60.1495 138.752 59.9432C138.428 59.7836 138.152 59.5423 137.949 59.2431C137.748 58.9199 137.649 58.5437 137.663 58.1632C137.652 57.731 137.773 57.3056 138.01 56.9439C138.244 56.5971 138.571 56.3235 138.954 56.1548C139.377 55.9669 139.836 55.8733 140.298 55.8804C141.223 55.8775 142.121 56.1916 142.843 56.7704C142.875 56.7947 142.903 56.8231 142.928 56.8549C142.945 56.8792 142.955 56.9081 142.956 56.938C142.954 56.9656 142.947 56.9924 142.933 57.0166C142.919 57.0463 142.899 57.0804 142.877 57.1175L142.553 57.5981C142.531 57.6347 142.503 57.6673 142.47 57.6945C142.446 57.7123 142.416 57.7222 142.386 57.7227C142.317 57.7157 142.251 57.6884 142.197 57.6441C141.913 57.4359 141.606 57.2626 141.281 57.1279C140.965 57.0008 140.627 56.9363 140.287 56.938C140.029 56.9335 139.772 56.9814 139.533 57.0789C139.328 57.1609 139.149 57.3004 139.02 57.4809C138.895 57.6635 138.83 57.8809 138.835 58.1024C138.827 58.3156 138.893 58.525 139.02 58.6957C139.167 58.8705 139.355 59.0053 139.568 59.0873C139.888 59.2179 140.219 59.3225 140.556 59.4003C141.036 59.5158 141.502 59.685 141.945 59.9046C142.266 60.0631 142.54 60.3042 142.738 60.6032C142.922 60.9176 143.012 61.2776 143 61.6416C143.008 62.079 142.879 62.5078 142.632 62.8682C142.376 63.2306 142.024 63.5133 141.615 63.6841C141.147 63.8821 140.643 63.9796 140.136 63.9703C139.649 63.974 139.167 63.8864 138.712 63.7122C138.271 63.5421 137.858 63.3044 137.489 63.0077C137.407 62.9335 137.366 62.8697 137.366 62.8178C137.373 62.7478 137.4 62.6813 137.444 62.6265L137.78 62.1563C137.835 62.0702 137.89 62.0302 137.943 62.0302Z" fill="white"/>
<path d="M81.8124 41.4687C74.1632 39.754 76.3085 34.7196 75.2521 31.0499C75.0107 30.216 74.4818 29.4951 73.7597 29.0157C73.0376 28.5362 72.1692 28.3293 71.3091 28.4319C68.9685 28.6959 65.9976 29.9849 63.4351 29.8247C63.1123 29.8087 62.797 29.7222 62.511 29.5713C62.2251 29.4204 61.9755 29.2088 61.7796 28.9511C61.5838 28.6934 61.4464 28.396 61.3771 28.0796C61.3078 27.7632 61.3083 27.4354 61.3785 27.1192C62.1671 23.8174 67.4194 19.2132 70.6996 13.8896C70.9181 13.5424 71.0949 13.1705 71.2263 12.7816C71.2309 12.7685 71.2349 12.7551 71.2381 12.7416C71.3412 12.4085 71.3701 12.0568 71.3227 11.7114C71.2753 11.3659 71.1528 11.0351 70.9638 10.7424C70.7748 10.4496 70.524 10.2021 70.2291 10.0172C69.9341 9.83238 69.6023 9.71473 69.257 9.67261C68.4445 9.57368 67.6268 9.52414 66.8084 9.52428C64.1506 9.52444 61.5197 10.0578 59.0706 11.0929C56.6216 12.128 54.4039 13.6439 52.5481 15.5514C50.6923 17.4588 49.2361 19.7193 48.265 22.1997C47.2939 24.68 46.8277 27.3301 46.8939 29.9938C47.1513 40.6425 55.8806 49.3094 66.5169 49.4651C69.4816 49.5125 72.4192 48.8944 75.1147 47.656C77.8102 46.4176 80.1952 44.5904 82.095 42.3082C82.1515 42.2399 82.1896 42.1581 82.2058 42.0708C82.222 41.9835 82.2156 41.8935 82.1873 41.8094C82.1589 41.7253 82.1096 41.6498 82.044 41.5902C81.9784 41.5305 81.8987 41.4887 81.8124 41.4687Z" fill="url(#paint0_linear_26_251)"/>
<path d="M79.0588 10.9379C79.725 10.6613 80.3085 10.2167 80.7526 9.64724C81.1967 9.07777 81.4863 8.40281 81.5933 7.68795C81.6722 7.10101 81.8959 6.54308 82.2441 6.06469C82.5924 5.58631 83.0542 5.20259 83.5877 4.94829L83.891 4.80886C84.324 4.59863 84.7945 4.47722 85.275 4.45174C85.7554 4.42627 86.2361 4.49726 86.6888 4.66053C87.1501 4.83937 87.6551 4.87151 88.1352 4.75259C88.6154 4.63368 89.0474 4.36946 89.3725 3.99585C89.6977 3.62224 89.9002 3.15733 89.9526 2.6643C90.0051 2.17126 89.9049 1.67399 89.6656 1.24004C89.3626 0.703932 88.8687 0.302495 88.2828 0.11625C87.697 -0.0699959 87.0626 -0.0272751 86.5068 0.235842C85.9532 0.503402 85.5231 0.973835 85.3054 1.55005C84.9659 2.46216 84.2811 3.2031 83.3998 3.61184L83.1394 3.73198C82.5812 3.98277 81.9699 4.09151 81.3598 4.04856C80.7496 4.0056 80.1595 3.81228 79.6418 3.48575C79.0624 3.12859 78.4048 2.91878 77.7261 2.87457C77.0474 2.83036 76.3682 2.9531 75.7476 3.23211C74.7274 3.67212 73.9233 4.50043 73.5122 5.53482C73.1012 6.56921 73.1168 7.72494 73.5557 8.74777C73.9946 9.77059 74.8208 10.5767 75.8526 10.9889C76.8843 11.401 78.0371 11.3853 79.0573 10.9453L79.0588 10.9379Z" fill="url(#paint1_linear_26_251)"/>
<path d="M93.4385 14.8849C92.644 14.5472 91.7674 14.4532 90.9196 14.6149C90.0719 14.7766 89.291 15.1868 88.6757 15.7934C88.0604 16.4001 87.6384 17.1761 87.4631 18.0232C87.2877 18.8703 87.3669 19.7506 87.6905 20.5526C88.4451 22.4216 88.2823 24.5397 87.3946 26.3523L86.3086 28.5773C86.0425 29.1446 85.576 29.5928 84.9992 29.8351C84.5461 30.0175 84.0489 30.0597 83.5717 29.9564C83.0944 29.853 82.6589 29.6088 82.3213 29.2551L80.0916 26.9145C79.7426 26.5366 79.4792 26.0875 79.3196 25.598C79.16 25.1084 79.1079 24.59 79.1669 24.0784C79.221 23.5296 79.121 22.9765 78.8781 22.4816C78.6352 21.9868 78.2592 21.5698 77.7924 21.278C76.5614 20.5052 74.7209 20.8522 73.8539 22.0196C73.5209 22.4705 73.3222 23.0069 73.281 23.5664C73.2398 24.126 73.3577 24.6858 73.621 25.1808C73.8843 25.6759 74.2823 26.086 74.7687 26.3634C75.2551 26.6409 75.8101 26.7744 76.3691 26.7484C76.8825 26.7122 77.3975 26.7879 77.8789 26.9702C78.3604 27.1525 78.7967 27.4371 79.158 27.8045L81.4528 30.2134C81.7102 30.4901 81.8963 30.8257 81.9951 31.1909C82.0938 31.5562 82.1022 31.9401 82.0194 32.3093C81.9198 32.7816 81.9367 33.2711 82.0685 33.7354C82.2004 34.1997 82.4433 34.6247 82.7761 34.9736C83.1089 35.3225 83.5216 35.5846 83.9784 35.7373C84.4352 35.89 84.9223 35.9287 85.3974 35.8499C85.8724 35.7711 86.3211 35.5773 86.7046 35.2853C87.088 34.9932 87.3945 34.6118 87.5976 34.1741C87.8006 33.7364 87.8941 33.2556 87.8698 32.7734C87.8455 32.2913 87.7042 31.8224 87.4582 31.4074C87.2749 31.0878 87.1732 30.7278 87.1621 30.3593C87.151 29.9908 87.2309 29.6253 87.3946 29.2952L88.5279 26.9664C89.4156 25.1331 91.0047 23.6854 92.9591 23.1098C93.8239 22.8565 94.5894 22.3411 95.1504 21.6344C95.7114 20.9276 96.0405 20.0641 96.0926 19.1624C96.1446 18.2606 95.917 17.3648 95.441 16.5979C94.965 15.831 94.264 15.2306 93.4341 14.879L93.4385 14.8849Z" fill="url(#paint2_linear_26_251)"/>
</g>
<defs>
<linearGradient id="paint0_linear_26_251" x1="45.7502" y1="11.3413" x2="86.6038" y2="51.1813" gradientUnits="userSpaceOnUse">
<stop stop-color="#A25FA5"/>
<stop offset="1" stop-color="#55C8EB"/>
</linearGradient>
<linearGradient id="paint1_linear_26_251" x1="66.3851" y1="-9.81946" x2="107.239" y2="30.0205" gradientUnits="userSpaceOnUse">
<stop stop-color="#A25FA5"/>
<stop offset="1" stop-color="#55C8EB"/>
</linearGradient>
<linearGradient id="paint2_linear_26_251" x1="59.785" y1="-3.04967" x2="100.637" y2="36.7903" gradientUnits="userSpaceOnUse">
<stop stop-color="#A25FA5"/>
<stop offset="1" stop-color="#55C8EB"/>
</linearGradient>
<clipPath id="clip0_26_251">
<rect width="143" height="64" fill="white"/>
</clipPath>
</defs>
</svg>
